<svg id="Layer_1" data-name="Layer 1" xmlns="http://www.w3.org/2000/svg" viewBox="0 0 746.12 230.69"><defs><style>.cls-1{fill:#498144;}.cls-2{fill:#1f2341;}</style></defs><title>boardgrab-colorArtboard 18</title><path class="cls-1" d="M479.25,100.29H449.58V89.93q0-9.8-.85-12.27t-4-2.47A3.73,3.73,0,0,0,441,77.31q-1,2.11-1,10.86v54.77q0,7.68,1,10.11a3.84,3.84,0,0,0,3.95,2.43,4.36,4.36,0,0,0,4.41-2.75q1.16-2.75,1.16-10.71V128.49h-6V111.15h34.75v61.26H460.6l-2.75-8.18a20.74,20.74,0,0,1-7.65,7.93,21.58,21.58,0,0,1-10.9,2.64,28.36,28.36,0,0,1-14-3.63,26.78,26.78,0,0,1-9.91-9,28.45,28.45,0,0,1-4.23-11.24,135,135,0,0,1-.85-17.66V99.38q0-16.36,1.76-23.76t10.11-13.57q8.36-6.17,21.61-6.17,13,0,21.64,5.36T476.64,74q2.61,7.37,2.61,21.4Z"/><path class="cls-1" d="M482.14,69.83a11.55,11.55,0,0,1,11.55-11.55h9.46q21,0,28.44,1.62a19.58,19.58,0,0,1,12.12,8.28q4.69,6.66,4.69,21.25,0,13.32-3.31,17.9t-13,5.5q8.81,2.19,11.84,5.85a17.54,17.54,0,0,1,3.77,6.73q.74,3.07.74,16.88v30.1H520.84V134.48q0-9.17-1.45-11.35t-7.58-2.19v51.46H482.14Zm29.68,8v25.38q5,0,7-1.38t2-8.92V86.62q0-5.43-1.94-7.12T511.82,77.81Z"/><path class="cls-1" d="M607.9,68.13l15.5,104.27H593.07l-1.59-20.51H580.87l-1.78,20.51H548.4L562.21,68.31a11.55,11.55,0,0,1,11.45-10h22.82A11.55,11.55,0,0,1,607.9,68.13Zm-17.19,63.53q-2.25-19.39-4.52-47.93-4.53,32.78-5.69,47.93Z"/><path class="cls-1" d="M623.4,69.83A11.55,11.55,0,0,1,635,58.28H653q14,0,21.25,2.18a21.08,21.08,0,0,1,11.66,8.84q4.44,6.66,4.44,21.45,0,10-3.14,13.95t-12.37,6.06q10.29,2.33,14,7.72T692.48,135V145.6q0,11.57-2.64,17.14a14.25,14.25,0,0,1-8.42,7.62q-5.78,2-23.68,2H623.4Zm29.68,8v25.38q1.9-.07,3-.07,4.37,0,5.57-2.15t1.2-12.3q0-5.36-1-7.51a4.73,4.73,0,0,0-2.57-2.71A22.93,22.93,0,0,0,653.08,77.81Zm0,43.14v31.93q6.27-.21,8-2t1.73-8.67V131.59q0-7.33-1.55-8.88T653.08,120.95Z"/><path class="cls-2" d="M705.7,28.87a11.55,11.55,0,0,1,11.55,11.55V201.81H28.87V40.42A11.55,11.55,0,0,1,40.42,28.87H705.7M705.7,0H40.42A40.47,40.47,0,0,0,0,40.42V230.69H746.12V40.42A40.47,40.47,0,0,0,705.7,0Z"/><path class="cls-2" d="M338.7,69.83a11.55,11.55,0,0,1,11.55-11.55H360.9q21.5,0,29.08,2t11.52,6.49a20.56,20.56,0,0,1,4.93,10q1,5.54,1,21.75v40q0,15.37-1.45,20.55a15.43,15.43,0,0,1-5,8.11,21,21,0,0,1-8.88,4.09q-5.29,1.16-15.93,1.16H338.7Zm29.68,8v75.07q6.41,0,7.89-2.57t1.48-14V92a59.75,59.75,0,0,0-.49-9.94A4.73,4.73,0,0,0,375,78.83Q373.24,77.81,368.37,77.81Z"/><path class="cls-2" d="M55.29,69.83A11.55,11.55,0,0,1,66.83,58.28H84.89q14,0,21.25,2.18a21.09,21.09,0,0,1,11.67,8.84q4.44,6.66,4.44,21.45,0,10-3.14,13.95t-12.37,6.06q10.29,2.33,14,7.72T124.37,135V145.6q0,11.57-2.64,17.14a14.25,14.25,0,0,1-8.42,7.62q-5.78,2-23.68,2H55.29Zm29.68,8v25.38q1.9-.07,3-.07,4.37,0,5.57-2.15t1.2-12.3q0-5.36-1-7.51a4.74,4.74,0,0,0-2.57-2.71A23,23,0,0,0,85,77.81Zm0,43.14v31.93q6.27-.21,8-2t1.73-8.67V131.59q0-7.33-1.55-8.88T85,120.95Z"/><path class="cls-2" d="M254.55,68.13l15.5,104.27H239.73l-1.59-20.51H227.52l-1.78,20.51H195.05L208.86,68.31a11.55,11.55,0,0,1,11.45-10h22.82A11.55,11.55,0,0,1,254.55,68.13Zm-17.19,63.53q-2.25-19.39-4.52-47.93-4.53,32.78-5.69,47.93Z"/><path class="cls-2" d="M269.46,69.83A11.55,11.55,0,0,1,281,58.28h9.46q21,0,28.44,1.62A19.58,19.58,0,0,1,331,68.18q4.69,6.66,4.69,21.25,0,13.32-3.31,17.9t-13,5.5q8.81,2.19,11.84,5.85a17.54,17.54,0,0,1,3.77,6.73q.74,3.07.74,16.88v30.1H308.16V134.48q0-9.17-1.45-11.35t-7.58-2.19v51.46H269.46Zm29.68,8v25.38q5,0,7-1.38t2-8.92V86.62q0-5.43-1.94-7.12T299.14,77.81Z"/><path class="cls-2" d="M195.25,80.91a27.42,27.42,0,0,0-17-22,43,43,0,0,0-16.46-3,41.94,41.94,0,0,0-16.92,3.17,27.27,27.27,0,0,0-16.6,22.17q-.81,7.16-.81,24.36v19.53q0,17.62.85,24.67a27.43,27.43,0,0,0,17,22,43,43,0,0,0,16.46,3,42,42,0,0,0,16.92-3.17,27.28,27.28,0,0,0,16.6-22.17q.81-7.15.81-24.35V105.58Q196.09,88,195.25,80.91ZM168.69,136.3a58,58,0,0,1-4.57,15.2l-.06.08a18.73,18.73,0,0,1-2.35.25,16.59,16.59,0,0,1-2.25-.25l-.06-.08a57.93,57.93,0,0,1-4.58-15.37c-5.2-41.11,3.66-53.52,6.93-56.6C165.08,82.67,173.9,95.13,168.69,136.3Z"/></svg>