<svg xmlns="http://www.w3.org/2000/svg" viewBox="0 0 1058 327.61"><defs><style>.cls-1{fill:#00af66;}.cls-2{fill:#1f2341;}</style></defs><title>BGLogoNew</title><g id="Layer_2" data-name="Layer 2"><g id="Layer_1-2" data-name="Layer 1"><path class="cls-1" d="M679.33,141.82H638.2V127.13q0-13.9-1.25-17.4c-.84-2.34-2.82-3.5-5.93-3.5a5.56,5.56,0,0,0-5.52,3q-1.49,3-1.48,15.4v77.71q0,11.39,1.48,15a5.71,5.71,0,0,0,5.86,3.61,6.47,6.47,0,0,0,6.54-4.08q1.73-4.08,1.72-15.88V181.53h-9.93V157.42h49.64v86.52H652.86L649,232.35a29.43,29.43,0,0,1-10.86,11.23,30.63,30.63,0,0,1-15.48,3.74,40.32,40.32,0,0,1-19.87-5.14,38,38,0,0,1-14.06-12.74,40.12,40.12,0,0,1-6-15.92,191.58,191.58,0,0,1-1.21-25v-48q0-23.16,2.5-33.64t14.35-19.21q11.86-8.73,30.68-8.74,18.45,0,30.72,7.59t15.91,18.07q3.71,10.44,3.7,30.3Z"/><path class="cls-1" d="M683.59,98.64A16.38,16.38,0,0,1,700,82.26h13q29.76,0,40.3,2.29a27.78,27.78,0,0,1,17.17,11.73q6.64,9.45,6.64,30.11,0,18.87-4.69,25.36T754,159.55q12.5,3.1,16.78,8.29a24.78,24.78,0,0,1,5.34,9.53q1.05,4.35,1.05,23.92v42.65H738.9V190.17q0-13-2-16.1T726.13,171v73H683.59Zm42.54,11.74v36c4.73,0,8-.66,9.93-2s2.84-5.52,2.84-12.65v-8.92q0-7.71-2.75-10.1t-10-2.4Z"/><path class="cls-1" d="M862.39,96.3l22.16,149.05h-43.2L839,215.57H823.63l-2.58,29.78H777.33l19.75-148.8a16.49,16.49,0,0,1,16.36-14.29h32.63A16.5,16.5,0,0,1,862.39,96.3Zm-24.63,90.91q-3.18-27.51-6.41-68-6.42,46.49-8.07,68Z"/><path class="cls-1" d="M883.56,98.6a16.34,16.34,0,0,1,16.38-16.34h25.55q19.83,0,30.1,3.09a29.86,29.86,0,0,1,16.52,12.53q6.28,9.44,6.29,30.4,0,14.16-4.45,19.77t-17.52,8.58q14.57,3.31,19.83,11T981.42,191v15q0,16.4-3.74,24.29a20.19,20.19,0,0,1-11.93,10.8q-8.19,2.84-33.55,2.84H883.56Zm42.54,11.78v36c1.8-.07,3.22-.1,4.26-.1q6.2,0,7.9-3.05t1.7-17.45c0-5.06-.47-8.62-1.42-10.65a6.71,6.71,0,0,0-3.64-3.84,32.62,32.62,0,0,0-8.8-.94Zm0,60.56v46.54c6.1-.21,10-1.18,11.67-2.92s2.52-5.95,2.52-12.64V186.41q0-10.68-2.26-12.94t-11.93-2.56Z"/><path class="cls-2" d="M1000.5,41.13a16.38,16.38,0,0,1,16.37,16.38v229H41.13v-229A16.38,16.38,0,0,1,57.51,41.13H999.85M1000.68,0H57.32A57.44,57.44,0,0,0,0,57.4V327.61H1058V57.4A57.44,57.44,0,0,0,1000.68,0Z"/><path class="cls-2" d="M480.78,98.64a16.38,16.38,0,0,1,16.38-16.38h15.23q30.61,0,41.4,2.83t16.4,9.19a29,29,0,0,1,7,14.17q1.42,7.85,1.43,30.8v56.66q0,21.76-2.07,29.1a21.78,21.78,0,0,1-7.12,11.49,29.87,29.87,0,0,1-12.64,5.79q-7.53,1.65-22.68,1.65H480.78Zm42.55,13.84V214.74q8.73,0,10.75-3.5t2-19.07V131.79a80.76,80.76,0,0,0-.67-13.55,6.43,6.43,0,0,0-3.08-4.4q-2.39-1.38-9-1.38Z"/><path class="cls-2" d="M78,98.63A16.37,16.37,0,0,1,94.35,82.26h25.58q19.84,0,30.11,3.09a29.83,29.83,0,0,1,16.53,12.53q6.28,9.44,6.29,30.4,0,14.16-4.45,19.77t-17.52,8.58q14.56,3.31,19.83,10.94T175.86,191v15q0,16.4-3.74,24.29a20.19,20.19,0,0,1-11.93,10.8q-8.19,2.84-33.54,2.84H78Zm42.55,11.75v36c1.8-.07,3.21-.1,4.25-.1q6.21,0,7.9-3.05t1.71-17.45c0-5.06-.48-8.62-1.42-10.65a6.75,6.75,0,0,0-3.65-3.84,32.62,32.62,0,0,0-8.75-.94Zm0,60.56v46.54q9.14-.31,11.66-2.92t2.52-12.64V186.41q0-10.68-2.26-12.94t-11.88-2.56Z"/><path class="cls-2" d="M361.26,96.3l22.16,149.05H340.23l-2.31-29.78H322.5l-2.59,29.78H276.2l19.74-148.8a16.51,16.51,0,0,1,16.37-14.29h32.62A16.5,16.5,0,0,1,361.26,96.3Zm-24.63,90.91q-3.19-27.51-6.41-68-6.42,46.49-8.07,68Z"/><path class="cls-2" d="M381.5,98.62a16.47,16.47,0,0,1,16.55-16.36h14.33q29.76,0,40.3,2.29a27.77,27.77,0,0,1,17.14,11.73q6.65,9.45,6.65,30.11,0,18.87-4.69,25.36t-18.42,7.8q12.48,3.1,16.78,8.29a24.92,24.92,0,0,1,5.34,9.53q1,4.35,1,23.92v42.65H436.82V190.17q0-13-2.05-16.1T424.05,171v73H381.5Zm42.55,11.76v36c4.73,0,8-.66,9.93-2s2.84-5.52,2.84-12.65v-8.92q0-7.71-2.76-10.1t-10-2.4Z"/><path class="cls-2" d="M276.76,114.49a39.08,39.08,0,0,0-24.24-31.36,61.3,61.3,0,0,0-23.46-4.28,59.7,59.7,0,0,0-24.12,4.52A38.88,38.88,0,0,0,181.27,115q-1.16,10.2-1.15,34.73v27.84q0,25.13,1.21,35.17a39.12,39.12,0,0,0,24.23,31.37A61.37,61.37,0,0,0,229,248.36a59.7,59.7,0,0,0,24.12-4.52,38.9,38.9,0,0,0,23.67-31.6Q278,202,278,177.52V149.66Q278,124.61,276.76,114.49ZM239.24,193.3a82,82,0,0,1-6.48,21.56l-.09.12a28.47,28.47,0,0,1-3.33.35,24.5,24.5,0,0,1-3.19-.35l-.08-.12a81.78,81.78,0,0,1-6.5-21.8c-7.37-58.3,5.19-75.9,9.83-80.27C234.12,117.25,246.63,134.92,239.24,193.3Z"/></g></g></svg>